<?xml version="1.0" encoding="UTF-8"?>
<svg xmlns="http://www.w3.org/2000/svg" viewBox="0 0 1981.5 1981.5">
  <defs>
    <style>
      .cls-1 {
        fill: #0a0a0a;
      }

      .cls-2 {
        fill: #e6e6e6;
      }

      .cls-3 {
        stroke: #000;
        stroke-miterlimit: 10;
      }

      .cls-3, .cls-4 {
        fill: #1a1a1a;
      }

      .cls-5 {
        fill: #303473;
      }
    </style>
  </defs>
  <g id="Calque_11" data-name="Calque 11">
    <path class="cls-3" d="M1981,990.75c0,507.66-382.03,926.1-874.28,983.53-5.23,.61-10.48,1.18-15.74,1.71-32.95,3.32-66.4,5.02-100.23,5.02-82.11,0-161.9-9.99-238.19-28.85-207.77-51.3-389.7-168.19-522.55-327.45-14.91-17.84-29.17-36.22-42.8-55.09-24.96-34.58-47.73-70.84-68.12-108.57C43.44,1321.13,.5,1160.96,.5,990.75,.5,443.86,443.86,.5,990.75,.5s990.25,443.36,990.25,990.25Z"/>
    <path class="cls-1" d="M1544.5,938.56l-453.52,1037.42c-32.95,3.32-66.4,5.02-100.23,5.02-82.11,0-161.9-9.99-238.19-28.85-207.77-51.3-389.7-168.19-522.55-327.45l234.09-535.67,1080.4-150.47Z"/>
  </g>
  <g id="Calque_1" data-name="Calque 1">
    <path class="cls-5" d="M1528.21,978.48l-604.67,510.56c-15.98,13.49-39.17,14.15-55.89,1.58l-335.11-251.91c-15.39-11.57-33.88-25.47-41.09-30.89h0c-6.11-4.59-10.94-10.66-14.04-17.65l-27.09-61c-8.29-18.67-2.92-40.58,13.07-53.3l552.9-439.88c13.1-10.43,30.92-12.68,46.21-5.85l433.1,193.44c12.24,5.47,21.39,16.12,24.95,29.04l12.66,45.93c5.11,18.56,9.3,33.74,9.3,33.74h0c4.65,16.87-.93,34.91-14.3,46.2Z"/>
    <ellipse class="cls-4" cx="1040.43" cy="983.94" rx="171.41" ry="141.83" transform="translate(-258.23 380.52) rotate(-18.48)"/>
    <path class="cls-2" d="M1055.32,876.6c-7.35-17.79-19.37-46.91-26.72-64.7l-37.99-91.98c76.74-83.65,.33-231.18-114.05-213.73-156.04,14.55-145.71,256.55,9.33,259.33,24.33,56.48,79.88,186.91,103.64,242.15,71.17,17.96,102.23-42.83,102.23-42.83,0,0-36.45-88.24-36.45-88.24Z"/>
    <path class="cls-2" d="M831.4,1281.48c59.89,43.53,106.16-19.54,46.67-63.6-59.89-43.53-106.16,19.54-46.67,63.6Z"/>
    <path class="cls-2" d="M590.01,1121.35c59.89,43.53,106.16-19.54,46.67-63.6-59.89-43.53-106.16,19.54-46.67,63.6Z"/>
    <circle class="cls-2" cx="890.44" cy="630.17" r="134.88"/>
  </g>
</svg>